<?xml version="1.0" encoding="UTF-8" standalone="no"?>
<!-- Created with Inkscape (http://www.inkscape.org/) -->

<svg
   xmlns:dc="http://purl.org/dc/elements/1.1/"
   xmlns:cc="http://creativecommons.org/ns#"
   xmlns:rdf="http://www.w3.org/1999/02/22-rdf-syntax-ns#"
   xmlns:svg="http://www.w3.org/2000/svg"
   xmlns="http://www.w3.org/2000/svg"
   xmlns:sodipodi="http://sodipodi.sourceforge.net/DTD/sodipodi-0.dtd"
   xmlns:inkscape="http://www.inkscape.org/namespaces/inkscape"
   width="210mm"
   height="297mm"
   viewBox="0 0 210 297"
   version="1.1"
   id="svg8"
   inkscape:version="0.92.4 (unknown)"
   sodipodi:docname="disegno.svg">
  <defs
     id="defs2" />
  <sodipodi:namedview
     id="base"
     pagecolor="#ffffff"
     bordercolor="#666666"
     borderopacity="1.0"
     inkscape:pageopacity="0.0"
     inkscape:pageshadow="2"
     inkscape:zoom="1.4"
     inkscape:cx="309.97362"
     inkscape:cy="655.26151"
     inkscape:document-units="mm"
     inkscape:current-layer="layer1"
     showgrid="false"
     inkscape:window-width="1920"
     inkscape:window-height="1054"
     inkscape:window-x="1366"
     inkscape:window-y="0"
     inkscape:window-maximized="1" />
  <metadata
     id="metadata5">
    <rdf:RDF>
      <cc:Work
         rdf:about="">
        <dc:format>image/svg+xml</dc:format>
        <dc:type
           rdf:resource="http://purl.org/dc/dcmitype/StillImage" />
        <dc:title></dc:title>
      </cc:Work>
    </rdf:RDF>
  </metadata>
  <g
     inkscape:label="Livello 1"
     inkscape:groupmode="layer"
     id="layer1">
    <circle
       style="opacity:0.98999999;fill:#00f3a7;fill-opacity:1;stroke:#000000;stroke-width:1.1;stroke-linecap:round;stroke-linejoin:bevel;stroke-miterlimit:4;stroke-dasharray:none;stroke-dashoffset:0;stroke-opacity:1;paint-order:stroke fill markers"
       id="path843"
       cx="99.0242"
       cy="127.71101"
       r="51.971725" />
    <path
       style="fill:#ffffff;fill-opacity:1;stroke:#000000;stroke-width:0.60000002;stroke-linecap:butt;stroke-linejoin:miter;stroke-miterlimit:4;stroke-dasharray:none;stroke-opacity:1"
       d="m 96.148821,91.514636 c -10.86395,0.009 -21.31358,0.73177 -30.47256,3.02152 -9.03041,0.11403 -19.74839,-3.92009 -25.3907,4.543387 -0.41373,0.6206 -1.44638,1.972547 -0.8015,2.939867 1.12522,1.68784 6.0219,0.99785 7.48326,0.26717 9.34722,-4.673607 23.196,-0.5855 31.53813,-6.146917 4.26272,-2.841807 35.999649,1.54204 40.892079,2.93988 6.09081,1.740227 16.04251,0.53433 22.45082,0.53433 4.29569,0 20.25507,3.293637 22.98516,-0.8015 4.6012,-6.901787 -12.21007,-5.345407 -14.96704,-5.345407 -16.35309,0 -35.61108,-1.9674 -53.717649,-1.95233 z m 3.685561,7.178367 c -4.702991,0.0619 -8.706711,3.278667 -11.079431,7.145817 -3.72499,-2.40114 -11.98319,-2.61778 -14.10508,-1.91048 -2.70915,0.90305 -5.27173,2.92057 -6.98097,5.38571 -4.25101,-0.2994 -10.08115,0.86651 -11.54141,-0.59376 -2.81225,-2.81224 9.97887,-1.96076 10.42365,-2.40553 1.0255,-1.02551 -2.33739,-1.77965 -3.20756,-2.93988 -2.78484,0.13385 -6.31807,-1.02227 -9.08678,-0.26716 -1.90068,0.51836 -4.96045,0.9144 -6.68176,1.87068 -16.57926,9.2107 15.29242,6.7743 13.89786,10.95799 -1.16036,3.48106 -29.78495,3.23867 -29.39976,4.00906 0.70622,1.41244 1.25193,0.87491 2.40554,1.33635 1.39369,0.55748 1.70686,2.85409 3.4742,3.20756 8.25537,1.65107 15.49849,-2.22596 22.98517,-5.34541 1.88593,-0.78581 3.89878,-0.76891 5.71489,-0.94258 4.17035,5.01674 19.00817,6.52101 21.36045,4.16874 0.80033,-0.80033 0.33903,-4.3744 -0.53433,-4.81108 -1.96425,-0.98213 -27.50284,-9.0873 -7.75095,-9.0873 h 4.54391 c -0.35352,1.4141 0.93998,2.20193 2.40864,2.47892 -0.45912,2.24877 -0.26612,4.36358 0.74983,5.88749 2.18866,3.28301 10.28865,6.79198 15.514289,5.87406 0.1251,0.30665 0.27864,0.59408 0.47336,0.8537 1.075,1.43333 3.51661,1.37876 4.54339,2.40553 0.41674,0.41674 1.62551,0.46839 1.87069,-0.26716 0.43316,-1.29949 -1.11693,-7.72682 -0.53434,-8.01812 6.15577,-3.07788 7.28092,13.56639 13.09636,7.75095 1.04908,-1.04908 1.30469,-2.18604 1.11156,-3.34243 0.95736,2.38877 2.47665,4.07712 4.87619,2.87734 3.86413,-1.93206 -1.97841,-11.22515 -0.26717,-11.22515 2.58119,0 5.53157,2.61048 8.55245,1.60352 0.90675,-0.30225 1.65721,-0.70321 2.26808,-1.17409 -0.0859,0.90116 -0.13281,1.86708 -0.13281,2.90732 0,3.18586 -0.0819,6.35566 1.06919,9.35447 2.11563,-1.05782 7.2316,1.85621 8.82013,0.26768 2.46421,-2.46421 -4.03603,-12.66007 8.28528,-8.55297 2.94825,0.98275 0.45765,7.75095 4.00906,7.75095 1.82711,0 1.18508,-6.33307 0.8015,-7.48378 -3.89783,-11.69352 -16.4328,-18.982347 -21.15788,-10.43761 -1.79675,-5.04013 -9.89445,-9.296987 -19.99878,-1.71875 0.002,0.88845 0.11914,1.7592 0.27802,2.62413 -0.21544,-0.27824 -0.51607,-0.55369 -0.92035,-0.82321 -3.9156,-2.61039 -13.04868,-2.84219 -16.83825,0 1.03983,2.12291 0.18307,5.60368 -0.32143,8.87853 -4.056899,-0.65078 -9.146379,-1.11744 -6.846089,-5.718 0.47019,-0.94041 2.62871,0.31168 3.207551,-0.26717 0.5529,-0.55289 -5.928761,-4.70534 -2.405541,-5.87974 3.670979,-1.22366 7.248329,1.45408 10.690819,-0.26717 3.43081,-1.7154 -2.35184,-5.064687 -3.47472,-5.345407 -1.43127,-0.55201 -2.82716,-0.7902 -4.166668,-0.77256 z m 21.429698,11.911927 c 0.29368,1.30263 0.60035,2.60543 0.70331,3.94395 0.0856,1.11266 0.33852,3.55496 0.97049,5.8384 -0.81871,-1.71542 -2.25782,-3.40171 -3.21634,-4.8395 -0.26027,-0.39041 -2.94393,-0.26893 -3.47473,-0.53433 -0.12678,-0.0634 4.37288,-2.11638 5.01727,-4.40852 z m -57.053879,12.44989 c -1.21452,0.0301 -2.45102,0.18694 -3.7145,0.50281 -5.48495,1.37124 -10.09828,4.79652 -15.5019,6.14743 -3.62113,0.90528 -9.65056,-0.0942 -11.49232,-3.47473 -1.3818,0.6909 -2.05363,-0.57696 -3.20756,0 -3.49939,1.7497 4.28758,8.08749 6.14743,8.55245 7.12364,1.78091 12.79557,-3.52102 19.24327,-4.81055 9.38249,-1.8765 30.00565,5.36908 38.75422,8.28528 2.48418,0.82806 6.934229,-0.0508 9.354469,-0.53485 8.43584,-1.68717 18.00109,-0.33188 26.1922,-2.67219 6.18857,-1.76817 10.93762,-3.28199 17.63975,-2.67271 3.71784,0.33799 18.24515,4.40126 20.57962,-0.26768 2.44638,-4.89276 -5.93619,-3.47421 -8.28528,-3.47421 -6.70428,0 -13.94071,-0.82986 -20.57962,0 -6.73119,0.8414 -14.05879,2.13786 -20.84679,2.13786 -9.75358,0 -20.536099,0.61747 -30.468939,-0.8015 -7.89829,-1.12833 -15.31245,-7.12802 -23.81405,-6.91741 z"
       id="path825"
       inkscape:connector-curvature="0" />
    <text
       xml:space="preserve"
       style="font-style:normal;font-variant:normal;font-weight:normal;font-stretch:normal;font-size:9.57392311px;line-height:1.25;font-family:f-0;-inkscape-font-specification:f-0;text-align:center;letter-spacing:0px;word-spacing:0px;text-anchor:middle;fill:#000000;fill-opacity:1;stroke:#000000;stroke-width:0.26499999;stroke-miterlimit:4;stroke-dasharray:none;stroke-opacity:1"
       x="99.581917"
       y="149.23981"
       id="text924-2"
       transform="scale(0.99720812,1.0027997)"><tspan
         sodipodi:role="line"
         id="tspan922-9"
         x="101.1059"
         y="149.23981"
         style="text-align:center;text-anchor:middle;fill:#000000;fill-opacity:1;stroke:#000000;stroke-width:0.26499999;stroke-miterlimit:4;stroke-dasharray:none;stroke-opacity:1">TOPOLINANO </tspan><tspan
         sodipodi:role="line"
         x="99.581917"
         y="161.20721"
         style="text-align:center;text-anchor:middle;fill:#000000;fill-opacity:1;stroke:#000000;stroke-width:0.26499999;stroke-miterlimit:4;stroke-dasharray:none;stroke-opacity:1"
         id="tspan926-1">TECHNOLOGIES</tspan></text>
    <text
       xml:space="preserve"
       style="font-style:normal;font-variant:normal;font-weight:normal;font-stretch:normal;font-size:9.57392216px;line-height:1.25;font-family:f-0;-inkscape-font-specification:f-0;text-align:center;letter-spacing:0px;word-spacing:0px;text-anchor:middle;fill:#ffffff;fill-opacity:1;stroke:none;stroke-width:0.26458332"
       x="99.581924"
       y="149.23924"
       id="text924"
       transform="scale(0.99720812,1.0027997)"><tspan
         sodipodi:role="line"
         id="tspan922"
         x="101.1059"
         y="149.23924"
         style="text-align:center;text-anchor:middle;fill:#ffffff;fill-opacity:1;stroke-width:0.26458332">TOPOLINANO </tspan><tspan
         sodipodi:role="line"
         x="99.581924"
         y="161.20665"
         style="text-align:center;text-anchor:middle;fill:#ffffff;fill-opacity:1;stroke-width:0.26458332"
         id="tspan926">TECHNOLOGIES</tspan></text>
  </g>
</svg>
