<?xml version="1.0" encoding="UTF-8" standalone="no"?>
<!-- Created with Inkscape (http://www.inkscape.org/) -->

<svg
   xmlns:dc="http://purl.org/dc/elements/1.1/"
   xmlns:cc="http://creativecommons.org/ns#"
   xmlns:rdf="http://www.w3.org/1999/02/22-rdf-syntax-ns#"
   xmlns:svg="http://www.w3.org/2000/svg"
   xmlns="http://www.w3.org/2000/svg"
   xmlns:sodipodi="http://sodipodi.sourceforge.net/DTD/sodipodi-0.dtd"
   xmlns:inkscape="http://www.inkscape.org/namespaces/inkscape"
   width="134.70384mm"
   height="134.70384mm"
   viewBox="0 0 134.70384 134.70384"
   version="1.1"
   id="svg5908"
   inkscape:version="0.92.4 (5da689c313, 2019-01-14)"
   sodipodi:docname="scerpa_logo.svg">
  <defs
     id="defs5902" />
  <sodipodi:namedview
     id="base"
     pagecolor="#ffffff"
     bordercolor="#666666"
     borderopacity="1.0"
     inkscape:pageopacity="0.0"
     inkscape:pageshadow="2"
     inkscape:zoom="0.9899495"
     inkscape:cx="37.413481"
     inkscape:cy="238.26525"
     inkscape:document-units="mm"
     inkscape:current-layer="layer1"
     showgrid="false"
     inkscape:window-width="2880"
     inkscape:window-height="1541"
     inkscape:window-x="2869"
     inkscape:window-y="-11"
     inkscape:window-maximized="1" />
  <metadata
     id="metadata5905">
    <rdf:RDF>
      <cc:Work
         rdf:about="">
        <dc:format>image/svg+xml</dc:format>
        <dc:type
           rdf:resource="http://purl.org/dc/dcmitype/StillImage" />
        <dc:title />
      </cc:Work>
    </rdf:RDF>
  </metadata>
  <g
     inkscape:label="Livello 1"
     inkscape:groupmode="layer"
     id="layer1"
     transform="translate(-12.422417,-70.357903)">
    <circle
       style="opacity:1;fill:#ffffff;fill-opacity:1;fill-rule:evenodd;stroke:none;stroke-width:0.2143299;stroke-linecap:round;stroke-linejoin:round;stroke-miterlimit:4;stroke-dasharray:0.2143299, 0.2143299;stroke-dashoffset:0;stroke-opacity:1;paint-order:markers fill stroke"
       id="path4772"
       cx="79.774338"
       cy="137.70982"
       r="67.351921" />
    <circle
       style="opacity:1;fill:#d0f8e9;fill-opacity:1;fill-rule:evenodd;stroke:#000000;stroke-width:4.61170387;stroke-linecap:square;stroke-linejoin:round;stroke-miterlimit:4;stroke-dasharray:none;stroke-dashoffset:0;stroke-opacity:1;paint-order:markers fill stroke"
       id="path10440"
       transform="rotate(-114.94449)"
       cx="-158.50784"
       cy="14.25499"
       r="55.463139" />
    <circle
       style="opacity:1;fill:#ffffff;fill-opacity:1;fill-rule:evenodd;stroke:none;stroke-width:3.63354015;stroke-linecap:square;stroke-linejoin:round;stroke-miterlimit:4;stroke-dasharray:none;stroke-dashoffset:0;stroke-opacity:1;paint-order:normal"
       id="path10385-3"
       r="15.033912"
       cy="99.554634"
       cx="42.295403" />
    <circle
       style="opacity:1;fill:#1bc082;fill-opacity:1;fill-rule:evenodd;stroke:#000000;stroke-width:2.5999999;stroke-linecap:square;stroke-linejoin:round;stroke-miterlimit:4;stroke-dasharray:none;stroke-dashoffset:0;stroke-opacity:1;paint-order:normal"
       id="path10385"
       r="10.757599"
       cy="99.554634"
       cx="42.295403" />
    <rect
       style="opacity:1;fill:#000000;fill-opacity:1;fill-rule:evenodd;stroke:none;stroke-width:0.85877657;stroke-linecap:square;stroke-linejoin:round;stroke-miterlimit:10;stroke-dasharray:none;stroke-dashoffset:0;stroke-opacity:1;paint-order:normal"
       id="rect10387-3"
       width="15.367997"
       height="2.9399648"
       x="91.870636"
       y="-43.765385"
       transform="rotate(90)" />
    <rect
       style="opacity:1;fill:#000000;fill-opacity:1;fill-rule:evenodd;stroke:none;stroke-width:0.85877657;stroke-linecap:square;stroke-linejoin:round;stroke-miterlimit:10;stroke-dasharray:none;stroke-dashoffset:0;stroke-opacity:1;paint-order:normal"
       id="rect10387-3-4"
       width="15.367998"
       height="2.9399648"
       x="-49.979401"
       y="-101.02462"
       transform="scale(-1)" />
    <g
       aria-label="SCERPA"
       style="font-style:normal;font-variant:normal;font-weight:normal;font-stretch:normal;font-size:16.26979828px;line-height:1.25;font-family:OpenSans-Bold;-inkscape-font-specification:OpenSans-Bold;letter-spacing:0px;word-spacing:0px;fill:#000000;fill-opacity:1;stroke:none;stroke-width:1.52529347"
       id="text10444"
       transform="matrix(1.4513436,0,0,1.4513436,-35.955088,-62.132231)">
      <path
         style="font-style:normal;font-variant:normal;font-weight:normal;font-stretch:normal;font-family:'Russo One';-inkscape-font-specification:'Russo One';stroke-width:1.52529347"
         d="m 47.501538,140.96014 c 2.101825,-0.44085 6.35886,1.65399 6.877982,-1.2226 -0.575438,-2.00062 -4.048994,0.0635 -5.657859,-1.20116 -1.87427,-1.16462 -1.768292,-4.28773 -0.511087,-5.87538 1.814259,-1.28084 4.148583,-0.54075 6.218802,-0.7306 1.025688,0.0316 2.431273,-0.39282 1.907974,1.22232 -0.23031,2.19079 -3.803801,0.49391 -5.504571,1.11645 -1.907822,2.41131 2.124601,2.44965 3.653433,2.23141 2.633554,-0.16926 3.136437,2.833 2.717883,4.82602 -0.63009,2.98732 -4.413358,2.06831 -6.626209,2.01546 -2.053538,-0.1169 -3.664092,0.5479 -3.076348,-2.38192 z"
         id="path10446"
         inkscape:connector-curvature="0" />
      <path
         style="font-style:normal;font-variant:normal;font-weight:normal;font-stretch:normal;font-family:'Russo One';-inkscape-font-specification:'Russo One';stroke-width:1.52529347"
         d="m 67.528389,143.15656 c -2.77489,-0.0861 -6.151093,1.2506 -8.517191,-0.62378 -1.153529,-1.95424 -0.3228,-4.34969 -0.609102,-6.49394 -0.498066,-2.36514 1.307084,-4.59728 3.792241,-4.13121 1.777459,0.0737 3.555327,10e-4 5.334052,0.0227 0.393178,1.75564 -0.341954,2.77661 -2.196524,2.27708 -2.006779,-0.24479 -4.906258,-0.19166 -3.959705,2.69351 -0.121359,1.94653 -0.566848,5.09736 2.383908,4.32013 1.272874,0.25827 4.294087,-1.31275 3.772321,0.92525 0,0.33675 0,0.67349 0,1.01024 z"
         id="path10448"
         inkscape:connector-curvature="0" />
      <path
         style="font-style:normal;font-variant:normal;font-weight:normal;font-stretch:normal;font-family:'Russo One';-inkscape-font-specification:'Russo One';stroke-width:1.52529347"
         d="m 77.845728,143.31926 c -3.009913,0 -6.019825,0 -9.029738,0 0,-3.79629 0,-7.59257 0,-11.38886 3.009913,0 6.019825,0 9.029738,0 0.271571,1.4736 -0.03139,2.73493 -1.71331,2.27777 -1.462622,0 -2.925243,0 -4.387865,0 -0.346421,1.45321 0.113948,2.62926 1.71322,2.19643 1.028791,0 2.057581,0 3.086371,0 0.271571,1.4736 -0.03139,2.73493 -1.71331,2.27777 -1.028761,0 -2.057521,0 -3.086281,0 -0.250148,1.47755 -0.01521,2.83613 1.71331,2.35912 1.462622,0 2.925243,0 4.387865,0 0,0.75926 0,1.51851 0,2.27777 z"
         id="path10450"
         inkscape:connector-curvature="0" />
      <path
         style="font-style:normal;font-variant:normal;font-weight:normal;font-stretch:normal;font-family:'Russo One';-inkscape-font-specification:'Russo One';stroke-width:1.52529347"
         d="m 79.143501,131.9304 c 2.949018,0.21324 6.080522,-0.47369 8.912539,0.45021 1.567777,1.30029 1.319662,3.7114 1.018529,5.50358 -0.579413,1.51046 -2.33009,2.24103 -0.632892,3.7599 1.400913,1.54698 0.735213,1.89127 -0.893404,1.67517 -2.080775,0.57355 -2.165672,-2.22144 -3.198437,-3.41666 -1.473599,-0.27157 -2.734931,0.0314 -2.277772,1.71331 -0.09912,0.73227 0.407081,2.06985 -0.7908,1.70335 -0.630034,-0.17042 -1.946573,0.34566 -2.137763,-0.2636 0,-3.70842 0,-7.41684 0,-11.12526 z m 7.158711,3.25396 c -0.416553,-1.44487 -3.490973,-1.41394 -4.287445,-0.46401 0.168259,1.34213 -0.541651,3.61429 1.738453,2.90976 1.992778,0.38032 2.942218,-0.48548 2.548992,-2.44575 z"
         id="path10452"
         inkscape:connector-curvature="0" />
      <path
         style="font-style:normal;font-variant:normal;font-weight:normal;font-stretch:normal;font-family:'Russo One';-inkscape-font-specification:'Russo One';stroke-width:1.52529347"
         d="m 90.869193,131.9304 c 2.949019,0.21324 6.080521,-0.47368 8.912541,0.4502 1.628766,1.31825 1.220516,3.72469 1.058096,5.56187 -0.35343,2.34058 -3.038032,2.17681 -4.82787,2.12865 -1.473488,-0.23348 -2.663282,-0.13206 -2.214203,1.57578 -0.09463,0.72642 0.401604,2.04371 -0.7908,1.67236 -0.630035,-0.17042 -1.946573,0.34566 -2.137764,-0.2636 0,-3.70842 0,-7.41684 0,-11.12526 z m 7.158712,3.25396 c -0.416553,-1.44487 -3.490973,-1.41394 -4.287445,-0.46401 0.09527,1.01481 0.0456,2.04423 0.0573,3.06718 2.236178,-0.0578 4.972948,0.73134 4.230148,-2.60317 z"
         id="path10454"
         inkscape:connector-curvature="0" />
      <path
         style="font-style:normal;font-variant:normal;font-weight:normal;font-stretch:normal;font-family:'Russo One';-inkscape-font-specification:'Russo One';stroke-width:1.52529347"
         d="m 103.48464,143.31926 c -1.05754,0 -2.11507,0 -3.17261,0 1.43717,-3.79629 2.87433,-7.59257 4.3115,-11.38886 1.08465,0 2.16931,0 3.25396,0 1.43717,3.79629 2.87433,7.59257 4.3115,11.38886 -1.05754,0 -2.11507,0 -3.17261,0 -0.18018,-1.41023 -0.96862,-2.41368 -2.44537,-2.03373 -0.77055,0.0827 -1.77366,-0.1655 -2.39886,0.12401 -0.22917,0.63657 -0.45834,1.27315 -0.68751,1.90972 z m 1.46429,-4.1488 c 0.86772,0 1.73544,0 2.60316,0 -0.59656,-1.08136 -1.19312,-5.50251 -1.78967,-2.38962 -0.27117,0.79654 -0.54233,1.59308 -0.81349,2.38962 z"
         id="path10456"
         inkscape:connector-curvature="0" />
    </g>
    <text
       xml:space="preserve"
       style="font-style:normal;font-variant:normal;font-weight:normal;font-stretch:normal;font-size:2.82222223px;line-height:1.25;font-family:OpenSans-Bold;-inkscape-font-specification:OpenSans-Bold;letter-spacing:0px;word-spacing:0px;fill:#000000;fill-opacity:1;stroke:none;stroke-width:0.26458332"
       x="45.471302"
       y="152.99109"
       id="text10473"><tspan
         sodipodi:role="line"
         id="tspan10471"
         x="45.471302"
         y="152.99109"
         style="font-size:5.64444447px;stroke-width:0.26458332">ToPoliNano Technologies</tspan></text>
    <path
       style="opacity:1;fill:#00ff66;fill-opacity:1;fill-rule:evenodd;stroke:#000000;stroke-width:2.9000001;stroke-linecap:square;stroke-linejoin:round;stroke-miterlimit:4;stroke-dasharray:none;stroke-dashoffset:0;stroke-opacity:1;paint-order:normal"
       id="path10385-9"
       r="10.757599"
       cy="99.554634"
       cx="42.295403"
       d=""
       inkscape:connector-curvature="0" />
    <path
       style="opacity:1;fill:#00ff66;fill-opacity:1;fill-rule:evenodd;stroke:#000000;stroke-width:2.9000001;stroke-linecap:square;stroke-linejoin:round;stroke-miterlimit:4;stroke-dasharray:none;stroke-dashoffset:0;stroke-opacity:1;paint-order:normal"
       id="path10385-9-8"
       r="10.757599"
       cy="99.554634"
       cx="42.295403"
       d=""
       inkscape:connector-curvature="0" />
    <circle
       style="opacity:1;fill:#ffffff;fill-opacity:1;fill-rule:evenodd;stroke:none;stroke-width:3.63354039;stroke-linecap:square;stroke-linejoin:round;stroke-miterlimit:4;stroke-dasharray:none;stroke-dashoffset:0;stroke-opacity:1;paint-order:normal"
       id="path10385-3-0"
       r="15.033912"
       cy="174.43262"
       cx="119.75229" />
    <circle
       style="opacity:1;fill:#1bc082;fill-opacity:1;fill-rule:evenodd;stroke:#000000;stroke-width:2.5999999;stroke-linecap:square;stroke-linejoin:round;stroke-miterlimit:4;stroke-dasharray:none;stroke-dashoffset:0;stroke-opacity:1;paint-order:normal"
       id="path10385-35"
       r="10.757599"
       cy="174.43262"
       cx="119.75229" />
    <rect
       style="opacity:1;fill:#000000;fill-opacity:1;fill-rule:evenodd;stroke:none;stroke-width:0.85877657;stroke-linecap:square;stroke-linejoin:round;stroke-miterlimit:10;stroke-dasharray:none;stroke-dashoffset:0;stroke-opacity:1;paint-order:normal"
       id="rect10387-3-4-4"
       width="15.367999"
       height="2.9399648"
       x="-127.43629"
       y="-175.9026"
       transform="scale(-1)" />
  </g>
</svg>
